<?xml version="1.0" encoding="UTF-8" standalone="no"?>
<svg
   xmlns:dc="http://purl.org/dc/elements/1.1/"
   xmlns:cc="http://creativecommons.org/ns#"
   xmlns:rdf="http://www.w3.org/1999/02/22-rdf-syntax-ns#"
   xmlns:svg="http://www.w3.org/2000/svg"
   xmlns="http://www.w3.org/2000/svg"
   height="370"
   width="700"
   xml:space="preserve"
   viewBox="0 0 700 370"
   y="0px"
   x="0px"
   id="Layer_1"
   version="1.1"><metadata
     id="metadata39"><rdf:RDF><cc:Work
         rdf:about=""><dc:format>image/svg+xml</dc:format><dc:type
           rdf:resource="http://purl.org/dc/dcmitype/StillImage" /><dc:title></dc:title></cc:Work></rdf:RDF></metadata><defs
     id="defs37" /><rect
     style="fill:#292326"
     id="rect6"
     height="28.370001"
     width="163.85001"
     class="st1"
     y="6.4300065"
     x="536.15002" /><rect
     style="fill:#292326"
     id="rect8"
     height="28.370001"
     width="163.85001"
     class="st1"
     y="51.589996"
     x="536.15002" /><rect
     style="fill:#292326"
     id="rect10"
     height="28.370001"
     width="163.85001"
     class="st1"
     y="96.75"
     x="536.15002" /><rect
     style="fill:#292326"
     id="rect12"
     height="28.370001"
     width="114.03"
     class="st1"
     y="141.89999"
     x="536.15002" /><path
     style="fill:#292326"
     id="path16"
     d="m 0.01,12.27 h 56.41 c 34.41,0 58.51,20.6 58.51,51.26 0,22 -10.3,39.09 -29.26,47.98 l 35.81,64.6 H 81.69 L 51.49,116.9 H 34.87 v 59.21 H 0 V 12.27 Z m 56.87,73.04 c 12.64,0 21.77,-7.49 21.77,-21.07 0,-10.53 -7.25,-19.43 -22.94,-19.43 H 34.88 V 85.3 h 22 z"
     class="st1" /><path
     style="fill:#292326"
     id="path18"
     d="m 119.73,114.57 c 0,-38.62 28.55,-64.84 62.96,-64.84 37.92,0 61.56,28.09 61.56,64.6 v 8.66 h -89.41 c 0.23,16.15 12.17,25.98 28.32,25.98 11.23,0 22,-4.45 26.68,-14.74 l 30.43,7.02 c -8.9,27.62 -32.77,37.92 -56.64,37.92 -37.69,0 -63.9,-27.39 -63.9,-64.6 z m 90.12,-14.28 c -1.64,-12.4 -12.64,-22.24 -27.16,-22.24 -15.92,0 -25.98,11.24 -27.62,22.24 z"
     class="st1" /><path
     style="fill:#292326"
     id="path20"
     d="m 250.65,114.33 c 0,-37.22 25.04,-64.6 56.64,-64.6 15.69,0 26.92,6.09 34.18,14.51 h 2.58 V 52.77 h 34.17 v 89.64 c 0,3.28 2.34,5.15 5.62,5.15 h 4.92 v 28.55 h -30.9 c -7.96,0 -13.58,-6.08 -13.58,-13.1 h -2.57 c -6.56,9.36 -16.39,16.15 -34.18,16.15 -31.61,0.01 -56.88,-27.85 -56.88,-64.83 z m 93.85,0.24 c 0,-20.37 -13.57,-31.84 -29.72,-31.84 -16.39,0 -29.49,12.41 -29.49,31.84 0,19.43 13.34,31.83 29.72,31.83 17.79,0 29.49,-14.51 29.49,-31.83 z"
     class="st1" /><path
     style="fill:#292326"
     id="path22"
     d="m 391.66,114.33 c 0,-36.05 23.87,-64.6 55.7,-64.6 18.96,0 29.26,8.43 35.11,15.68 h 2.58 V 0.58 h 34.17 v 175.54 h -34.17 v -11.47 h -2.58 c -5.85,7.72 -15.69,14.52 -33.24,14.52 -31.83,0 -57.57,-27.86 -57.57,-64.84 z m 93.85,0.24 c 0,-20.37 -13.57,-32.3 -29.72,-32.3 -16.62,0 -29.49,12.87 -29.49,32.3 0,19.43 13.34,32.3 29.72,32.3 17.79,0 29.49,-14.98 29.49,-32.3 z"
     class="st1" /><path
     style="fill:#292326"
     id="path26"
     d="m 352.15,275.68 v -82.86 h 36.59 v 71.85 c 0,12.41 9.02,21.54 21.81,21.54 13.27,0 22.55,-9.36 22.55,-21.77 v -71.62 h 36.6 v 123.35 h -36.6 v -11.23 h -2.5 c -6.02,7.96 -16.8,14.27 -32.08,14.27 -27.82,0 -46.37,-19.43 -46.37,-43.53 z"
     class="st1" /><path
     style="fill:#292326"
     id="path28"
     d="m 485.05,192.82 h 34.17 v 11.47 h 2.58 c 6.09,-7.72 16.15,-14.52 33.24,-14.52 31.83,0 57.58,27.85 57.58,64.84 0,36.05 -23.88,64.6 -55.71,64.6 -18.96,0 -29.96,-8.19 -35.11,-15.68 h -2.58 V 370 h -34.17 z m 92.93,61.55 c 0,-19.19 -13.34,-32.07 -29.72,-32.07 -17.79,0 -29.5,14.74 -29.5,32.07 0,20.6 13.58,32.54 29.73,32.54 16.61,0 29.49,-13.1 29.49,-32.54 z"
     class="st1" /></svg>