<?xml version="1.0" encoding="UTF-8" standalone="no"?>
<svg
   xmlns:dc="http://purl.org/dc/elements/1.1/"
   xmlns:cc="http://creativecommons.org/ns#"
   xmlns:rdf="http://www.w3.org/1999/02/22-rdf-syntax-ns#"
   xmlns:svg="http://www.w3.org/2000/svg"
   xmlns="http://www.w3.org/2000/svg"
   height="500"
   width="500"
   xml:space="preserve"
   viewBox="0 0 500 500"
   y="0px"
   x="0px"
   id="Layer_1"
   version="1.1"><metadata
     id="metadata27"><rdf:RDF><cc:Work
         rdf:about=""><dc:format>image/svg+xml</dc:format><dc:type
           rdf:resource="http://purl.org/dc/dcmitype/StillImage" /><dc:title></dc:title></cc:Work></rdf:RDF></metadata><defs
     id="defs25" /><rect
     style="fill:#292326"
     x="0"
     y="0"
     width="500"
     height="500"
     id="background" /><path
     style="fill:#f7f6f5"
     id="letter-r"
     d="m 74.99999,163.37001 h 64.11 c 39.11,0 66.51,23.42 66.51,58.26 0,25.01 -11.7,44.43 -33.26,54.53 l 40.7,73.43 h -45.22 l -34.32,-67.3 h -18.89 v 67.3 h -39.63 z m 64.64,83.01 c 14.37,0 24.74,-8.51 24.74,-23.95 0,-11.97 -8.24,-22.08 -26.07,-22.08 h -23.68 v 46.02 h 25.01 z" /><rect
     x="238.75999"
     y="156.72"
     width="186.23"
     height="32.240002"
     id="bar-1"
     style="fill:#f7f6f5" /><rect
     x="238.75999"
     y="208.05002"
     width="186.23"
     height="32.240002"
     id="bar-2"
     style="fill:#f7f6f5" /><rect
     x="238.75999"
     y="259.38"
     class="st1"
     width="186.23"
     height="32.240002"
     id="bar-3"
     style="fill:#f7f6f5" /><rect
     x="238.75999"
     y="310.71002"
     class="st1"
     width="129.60001"
     height="32.240002"
     id="bar-4"
     style="fill:#f7f6f5" /></svg>